<?xml version="1.0" encoding="UTF-8"?>
<!DOCTYPE svg PUBLIC "-//W3C//DTD SVG 1.1//EN" "http://www.w3.org/Graphics/SVG/1.1/DTD/svg11.dtd">
<svg xmlns="http://www.w3.org/2000/svg" version="1.1" width="32px" height="32px" style="shape-rendering:geometricPrecision; text-rendering:geometricPrecision; image-rendering:optimizeQuality; fill-rule:evenodd; clip-rule:evenodd" xmlns:xlink="http://www.w3.org/1999/xlink">
<g><path style="opacity:0.971" fill="#000000" d="M -0.5,3.5 C 10.1667,3.5 20.8333,3.5 31.5,3.5C 31.5,4.83333 31.5,6.16667 31.5,7.5C 20.8333,7.5 10.1667,7.5 -0.5,7.5C -0.5,6.16667 -0.5,4.83333 -0.5,3.5 Z"/></g>
<g><path style="opacity:0.971" fill="#000000" d="M -0.5,13.5 C 10.1667,13.5 20.8333,13.5 31.5,13.5C 31.5,14.8333 31.5,16.1667 31.5,17.5C 20.8333,17.5 10.1667,17.5 -0.5,17.5C -0.5,16.1667 -0.5,14.8333 -0.5,13.5 Z"/></g>
<g><path style="opacity:0.971" fill="#000000" d="M -0.5,23.5 C 10.1667,23.5 20.8333,23.5 31.5,23.5C 31.5,24.8333 31.5,26.1667 31.5,27.5C 20.8333,27.5 10.1667,27.5 -0.5,27.5C -0.5,26.1667 -0.5,24.8333 -0.5,23.5 Z"/></g>
</svg>
